<?xml version="1.0" encoding="utf-8"?>
<!-- Generator: Adobe Illustrator 22.0.0, SVG Export Plug-In . SVG Version: 6.00 Build 0)  -->
<svg version="1.1" xmlns="http://www.w3.org/2000/svg" xmlns:xlink="http://www.w3.org/1999/xlink" x="0px" y="0px"
	 viewBox="0 0 104 37.3" style="enable-background:new 0 0 104 37.3;" xml:space="preserve">
<style type="text/css">
	.st0{fill:#F4EBE6;}
	.st1{clip-path:url(#SVGID_2_);}
	.st2{opacity:0.2;fill:url(#);}
	.st3{clip-path:url(#SVGID_4_);}
	.st4{clip-path:url(#SVGID_6_);}
	.st5{clip-path:url(#SVGID_8_);}
	.st6{clip-path:url(#SVGID_10_);fill:#F4EBE6;}
	.st7{clip-path:url(#SVGID_10_);}
	.st8{clip-path:url(#SVGID_12_);}
	.st9{clip-path:url(#SVGID_14_);fill:#F4EBE6;}
	.st10{clip-path:url(#SVGID_14_);}
	.st11{clip-path:url(#SVGID_16_);}
	.st12{clip-path:url(#SVGID_18_);fill:#F4EBE6;}
	.st13{clip-path:url(#SVGID_18_);}
	.st14{clip-path:url(#SVGID_20_);}
	.st15{clip-path:url(#SVGID_22_);fill:#F4EBE6;}
	.st16{clip-path:url(#SVGID_22_);}
	.st17{clip-path:url(#SVGID_24_);}
	.st18{fill:#103499;}
	.st19{filter:url(#Adobe_OpacityMaskFilter);}
	.st20{fill:url(#SVGID_26_);}
	.st21{mask:url(#SVGID_25_);}
	.st22{fill:none;stroke:#103499;stroke-miterlimit:10;}
	.st23{filter:url(#Adobe_OpacityMaskFilter_1_);}
	.st24{fill:url(#SVGID_28_);}
	.st25{mask:url(#SVGID_27_);}
	.st26{fill:none;stroke:#EAB611;stroke-width:40;stroke-miterlimit:10;}
	.st27{opacity:0.5;}
	.st28{fill:#F0C30F;}
	.st29{opacity:0.5;fill:none;stroke:#F4C70B;stroke-width:40;stroke-miterlimit:10;}
	.st30{opacity:0.7;}
	.st31{opacity:0.4;fill:#E8C018;}
	.st32{clip-path:url(#SVGID_30_);}
	.st33{filter:url(#Adobe_OpacityMaskFilter_2_);}
	.st34{fill:url(#SVGID_32_);}
	.st35{mask:url(#SVGID_31_);}
	.st36{filter:url(#Adobe_OpacityMaskFilter_3_);}
	.st37{fill:url(#SVGID_34_);}
	.st38{mask:url(#SVGID_33_);}
	.st39{clip-path:url(#SVGID_36_);}
	.st40{clip-path:url(#SVGID_38_);}
	.st41{clip-path:url(#SVGID_40_);}
	.st42{clip-path:url(#SVGID_42_);fill:#F4EBE6;}
	.st43{clip-path:url(#SVGID_42_);}
	.st44{clip-path:url(#SVGID_44_);}
	.st45{fill:none;}
	.st46{filter:url(#Adobe_OpacityMaskFilter_4_);}
	.st47{fill:url(#SVGID_46_);}
	.st48{mask:url(#SVGID_45_);}
	.st49{filter:url(#Adobe_OpacityMaskFilter_5_);}
	.st50{fill:url(#SVGID_48_);}
	.st51{mask:url(#SVGID_47_);}
	.st52{clip-path:url(#SVGID_50_);}
	.st53{filter:url(#Adobe_OpacityMaskFilter_6_);}
	.st54{fill:url(#SVGID_52_);}
	.st55{mask:url(#SVGID_51_);}
	.st56{filter:url(#Adobe_OpacityMaskFilter_7_);}
	.st57{fill:url(#SVGID_54_);}
	.st58{mask:url(#SVGID_53_);}
	.st59{clip-path:url(#SVGID_56_);}
	.st60{clip-path:url(#SVGID_58_);}
	.st61{filter:url(#Adobe_OpacityMaskFilter_8_);}
	.st62{fill:url(#SVGID_60_);}
	.st63{mask:url(#SVGID_59_);}
	.st64{filter:url(#Adobe_OpacityMaskFilter_9_);}
	.st65{fill:url(#SVGID_62_);}
	.st66{mask:url(#SVGID_61_);}
	.st67{clip-path:url(#SVGID_64_);}
	.st68{filter:url(#Adobe_OpacityMaskFilter_10_);}
	.st69{fill:url(#SVGID_66_);}
	.st70{mask:url(#SVGID_65_);}
	.st71{filter:url(#Adobe_OpacityMaskFilter_11_);}
	.st72{fill:url(#SVGID_68_);}
	.st73{mask:url(#SVGID_67_);}
	.st74{filter:url(#Adobe_OpacityMaskFilter_12_);}
	.st75{fill:url(#SVGID_70_);}
	.st76{mask:url(#SVGID_69_);}
	.st77{filter:url(#Adobe_OpacityMaskFilter_13_);}
	.st78{fill:url(#SVGID_72_);}
	.st79{mask:url(#SVGID_71_);}
	.st80{fill:#7B7B7B;}
	.st81{opacity:5.000000e-02;fill:#F0C30F;}
	.st82{fill:#D26414;}
	.st83{opacity:0.4;}
	.st84{fill:none;stroke:#103499;stroke-width:0.75;stroke-miterlimit:10;}
	.st85{clip-path:url(#SVGID_74_);}
	.st86{filter:url(#Adobe_OpacityMaskFilter_14_);}
	.st87{fill:url(#SVGID_76_);}
	.st88{mask:url(#SVGID_75_);}
	.st89{filter:url(#Adobe_OpacityMaskFilter_15_);}
	.st90{fill:url(#SVGID_78_);}
	.st91{mask:url(#SVGID_77_);}
	.st92{fill:#3C5064;}
	.st93{fill:#1D1D1B;}
	.st94{fill:none;stroke:#D26414;stroke-linecap:round;stroke-miterlimit:10;}
	.st95{fill:#66592F;}
</style>
<g id="Layer_2">
</g>
<g id="Layer_1">
	<g>
		<path class="st93" d="M22.3,0.4c1.1,0,2.2,0.2,3.2,0.7c1,0.4,1.9,1,2.6,1.8c0.7,0.7,1.3,1.6,1.8,2.6c0.4,1,0.6,2.1,0.6,3.2
			c0,1.2-0.2,2.2-0.6,3.2c-0.4,1-1,1.9-1.8,2.6c-0.7,0.7-1.6,1.3-2.6,1.8c-1,0.4-2.1,0.6-3.2,0.6c-1.2,0-2.2-0.2-3.2-0.6
			c-1-0.4-1.9-1-2.6-1.8c-0.7-0.7-1.3-1.6-1.8-2.6c-0.4-1-0.6-2.1-0.6-3.2c0-1.1,0.2-2.2,0.6-3.2c0.4-1,1-1.9,1.8-2.6
			C17.2,2,18,1.4,19,1C20.1,0.6,21.1,0.4,22.3,0.4z M22.3,13.6c0.7,0,1.3-0.1,1.9-0.4c0.6-0.3,1.1-0.6,1.6-1.1
			c0.5-0.5,0.8-1,1.1-1.6c0.3-0.6,0.4-1.2,0.4-1.9c0-0.7-0.1-1.4-0.4-2C26.6,6,26.3,5.5,25.8,5c-0.5-0.5-1-0.8-1.6-1.1
			c-0.6-0.3-1.3-0.4-1.9-0.4c-0.7,0-1.4,0.1-2,0.4c-0.6,0.3-1.1,0.6-1.6,1.1c-0.4,0.5-0.8,1-1,1.6c-0.3,0.6-0.4,1.3-0.4,2
			c0,0.7,0.1,1.3,0.4,1.9c0.3,0.6,0.6,1.1,1,1.6c0.4,0.5,1,0.8,1.6,1.1C20.9,13.5,21.6,13.6,22.3,13.6z"/>
		<polygon class="st93" points="69.7,10.1 69.7,7 62.8,7 62.8,3.5 69.6,3.5 69.6,0.3 59.4,0.3 59.4,17 69.7,17 69.7,13.9 62.8,13.9 
			62.8,10.1 		"/>
		<path class="st93" d="M44.6,17l-5-6.9c0.3-0.1,0.7-0.1,1-0.3c0.7-0.3,1.3-0.6,1.8-1c0.5-0.4,0.7-0.8,0.9-1.3
			C43.4,7,43.6,6,43.5,5.2c0,0,0-1.5-0.3-2.2c-0.2-0.5-0.5-0.9-0.9-1.3c-0.5-0.4-1.1-0.8-1.8-1c-0.7-0.3-1.5-0.4-2.4-0.4H32v2.8
			L34.7,7H32V17h3.7v-6.7l4.9,6.7H44.6z M37.9,3.3c0.7,0,1.3,0.2,1.6,0.5c0.4,0.3,0.6,0.8,0.6,1.4v0v0.1c0,1.1-0.7,1.7-2,1.8
			l-1.3-1.9l-1.4-1.9H37.9z"/>
		<path class="st93" d="M57.1,5.4c-0.4-1-1-1.9-1.8-2.6c-0.7-0.7-1.6-1.3-2.6-1.8c-1-0.4-2.1-0.6-3.2-0.6h-4.1v12.2l3.1,4.4h1.2
			c1.1,0,2.2-0.3,3.2-0.7c1-0.4,1.9-1,2.6-1.8c0.7-0.7,1.3-1.6,1.7-2.6c0.4-1,0.6-2.1,0.6-3.2C57.7,7.5,57.5,6.5,57.1,5.4z
			 M54.2,10.6c-0.3,0.6-0.6,1.2-1.1,1.6c-0.5,0.5-1,0.8-1.6,1.1c-0.5,0.2-1,0.4-1.5,0.4l-1.3-1.9V3.5h0.7c0.7,0,1.4,0.1,2,0.4
			c0.6,0.3,1.2,0.6,1.6,1.1c0.5,0.5,0.8,1,1.1,1.6c0.3,0.6,0.4,1.3,0.4,2S54.4,10,54.2,10.6z"/>
		<g>
			<path class="st93" d="M9.7,8c0.5,0.2,0.9,0.4,1.3,0.6c0.4,0.2,0.7,0.5,1,0.8c0.3,0.3,0.5,0.7,0.6,1.1c0.1,0.4,0.2,0.9,0.2,1.5
				v0.1c0,0.8-0.1,1.4-0.4,2c-0.3,0.6-0.7,1.1-1.2,1.4c-0.5,0.4-1.2,0.7-1.9,0.9c-0.7,0.2-1.6,0.3-2.5,0.3H0.3V0h6.2
				C7.4,0,8.3,0.1,9,0.4c0.7,0.3,1.3,0.6,1.8,1c0.4,0.4,0.7,0.9,0.9,1.3c0.2,0.4,0.3,1,0.3,1.5v0.1c0,0.5-0.1,0.9-0.2,1.3
				c-0.1,0.4-0.3,0.7-0.5,1C11,7,10.8,7.3,10.5,7.5C10.2,7.7,10,7.9,9.7,8z M9.2,11.6c0-0.6-0.2-1-0.6-1.4C8.2,9.9,7.5,9.8,6.7,9.8
				h-3v3.8h3.2c0.7,0,1.3-0.1,1.8-0.4c0.4-0.3,0.7-0.8,0.7-1.4V11.6z M3.8,3v3.9h3c0.3,0,0.5,0,0.7-0.1C7.8,6.6,8,6.5,8.2,6.3
				C8.4,6.2,8.5,6,8.6,5.7C8.7,5.5,8.8,5.3,8.8,5c0-0.5-0.2-0.9-0.6-1.3C7.9,3.3,7.4,3.1,6.8,3H3.8z"/>
		</g>
		<g>
			<path class="st93" d="M79.9,10c0.3-0.1,0.7-0.1,1-0.3c0.7-0.3,1.3-0.6,1.8-1c0.5-0.4,0.7-0.8,0.9-1.3C83.6,7,83.8,6,83.8,5.2
				c0,0,0-1.5-0.3-2.2c-0.2-0.5-0.5-0.9-0.9-1.3c-0.5-0.4-1.1-0.8-1.8-1c-0.7-0.3-1.5-0.4-2.4-0.4h-6.1V17H76v-6.7l4.9,6.7h4
				L79.9,10z M79.6,6.8C79.6,6.8,79.6,6.8,79.6,6.8C79.3,7,79,7,78.6,7.1c-0.1,0-0.2,0-0.3,0l0,0c-0.1,0-0.2,0-0.3,0h-2.5V3.3h2.5
				c0.1,0,0.2,0,0.3,0l0,0c0.1,0,0.2,0,0.3,0c0.3,0,0.6,0.1,0.9,0.3c0,0,0.1,0,0.1,0c0,0,0,0,0,0c0.5,0.3,0.7,0.8,0.7,1.5l0,0v0v0
				v0.1v0v0v0C80.3,6,80.1,6.4,79.6,6.8C79.6,6.8,79.6,6.8,79.6,6.8z"/>
		</g>
		<path class="st93" d="M6.3,34.1c0.6,0,1.2-0.1,1.6-0.4c0.4-0.3,0.6-0.7,0.6-1.2c0-0.2,0-0.4-0.1-0.6c-0.1-0.2-0.2-0.4-0.4-0.6
			c-0.2-0.2-0.5-0.4-0.9-0.5c-0.4-0.2-0.9-0.4-1.5-0.6c-0.8-0.3-1.4-0.6-2-0.9c-0.6-0.3-1.1-0.7-1.5-1.1c-0.4-0.4-0.7-0.9-0.9-1.4
			c-0.2-0.5-0.3-1.2-0.3-1.9s0.1-1.4,0.4-2c0.3-0.6,0.6-1.1,1.1-1.6c0.5-0.4,1.1-0.8,1.7-1C4.7,20.1,5.4,20,6.3,20
			c0.9,0,1.9,0.2,2.8,0.5c0.9,0.3,1.8,0.8,2.5,1.6l-1.9,2.6c-0.6-0.4-1.2-0.8-1.7-1.1c-0.6-0.3-1.2-0.4-1.9-0.4
			c-0.6,0-1,0.1-1.4,0.4c-0.3,0.3-0.5,0.6-0.5,1.1c0,0.2,0,0.4,0.1,0.6c0.1,0.2,0.3,0.4,0.5,0.6c0.2,0.2,0.6,0.4,1,0.6
			c0.4,0.2,0.9,0.4,1.6,0.7c0.7,0.3,1.4,0.6,1.9,0.9c0.6,0.3,1,0.7,1.4,1.1c0.4,0.4,0.7,0.9,0.9,1.4c0.2,0.5,0.3,1.1,0.3,1.7
			c0,0.8-0.1,1.5-0.4,2.1c-0.3,0.6-0.7,1.2-1.2,1.6s-1.1,0.8-1.8,1c-0.7,0.2-1.4,0.3-2.2,0.3c-1.1,0-2.2-0.2-3.3-0.6
			c-1.1-0.4-2.1-1-3-1.9l2-2.6c0.6,0.5,1.2,1,1.9,1.3C4.6,33.9,5.4,34.1,6.3,34.1z"/>
		<path class="st93" d="M65.7,20.4c1.2,0,2.3,0.2,3.3,0.7c1,0.4,1.9,1,2.7,1.8c0.8,0.8,1.4,1.7,1.8,2.7c0.4,1,0.7,2.1,0.7,3.3
			c0,1.2-0.2,2.3-0.7,3.3c-0.4,1-1,1.9-1.8,2.7c-0.8,0.8-1.7,1.4-2.7,1.8c-1,0.4-2.1,0.7-3.3,0.7c-1.2,0-2.3-0.2-3.3-0.7
			c-1-0.4-1.9-1-2.7-1.8c-0.8-0.8-1.4-1.7-1.8-2.7c-0.4-1-0.7-2.1-0.7-3.3c0-1.2,0.2-2.3,0.7-3.3c0.4-1,1-1.9,1.8-2.7
			c0.8-0.8,1.7-1.4,2.7-1.8C63.4,20.6,64.5,20.4,65.7,20.4z M65.7,33.9c0.7,0,1.3-0.1,2-0.4c0.6-0.3,1.2-0.6,1.6-1.1
			c0.5-0.5,0.8-1,1.1-1.6c0.3-0.6,0.4-1.3,0.4-1.9c0-0.7-0.1-1.4-0.4-2c-0.3-0.6-0.6-1.2-1.1-1.7c-0.5-0.5-1-0.8-1.6-1.1
			c-0.6-0.3-1.3-0.4-2-0.4c-0.7,0-1.4,0.1-2,0.4c-0.6,0.3-1.2,0.6-1.6,1.1c-0.4,0.5-0.8,1-1.1,1.7c-0.3,0.6-0.4,1.3-0.4,2
			c0,0.7,0.1,1.3,0.4,1.9c0.3,0.6,0.6,1.1,1.1,1.6c0.4,0.5,1,0.8,1.6,1.1C64.3,33.7,65,33.9,65.7,33.9z"/>
		<path class="st93" d="M90.6,20.4v3.6v13.3h-3.2l-8.1-10.7v10.7h-3.6V23.9v-3.6h3.3l4.8,6.2l3.2,4.2V25v-1v-3.6H90.6z"/>
		<polygon class="st93" points="24.2,30.3 24.2,27.1 17.1,27.1 17.1,23.5 24,23.5 24,20.4 13.7,20.4 13.7,37.2 24.2,37.2 24.2,34 
			17.1,34 17.1,30.3 		"/>
		<path class="st93" d="M31.9,34.1c0.6,0,1.2-0.1,1.6-0.4c0.4-0.3,0.6-0.7,0.6-1.2c0-0.2,0-0.4-0.1-0.6c-0.1-0.2-0.2-0.4-0.4-0.6
			c-0.2-0.2-0.5-0.4-0.9-0.5c-0.4-0.2-0.9-0.4-1.5-0.6c-0.8-0.3-1.4-0.6-2-0.9c-0.6-0.3-1.1-0.7-1.5-1.1c-0.4-0.4-0.7-0.9-0.9-1.4
			c-0.2-0.5-0.3-1.2-0.3-1.9s0.1-1.4,0.4-2c0.3-0.6,0.6-1.1,1.1-1.6c0.5-0.4,1.1-0.8,1.7-1c0.7-0.2,1.4-0.4,2.3-0.4
			c0.9,0,1.9,0.2,2.8,0.5c0.9,0.3,1.8,0.8,2.5,1.6l-1.9,2.6c-0.6-0.4-1.2-0.8-1.7-1.1c-0.6-0.3-1.2-0.4-1.9-0.4
			c-0.6,0-1,0.1-1.4,0.4c-0.3,0.3-0.5,0.6-0.5,1.1c0,0.2,0,0.4,0.1,0.6c0.1,0.2,0.3,0.4,0.5,0.6c0.2,0.2,0.6,0.4,1,0.6
			c0.4,0.2,0.9,0.4,1.6,0.7c0.7,0.3,1.4,0.6,1.9,0.9c0.6,0.3,1,0.7,1.4,1.1c0.4,0.4,0.7,0.9,0.9,1.4c0.2,0.5,0.3,1.1,0.3,1.7
			c0,0.8-0.1,1.5-0.4,2.1c-0.3,0.6-0.7,1.2-1.2,1.6c-0.5,0.4-1.1,0.8-1.8,1c-0.7,0.2-1.4,0.3-2.2,0.3c-1.1,0-2.2-0.2-3.3-0.6
			c-1.1-0.4-2.1-1-3-1.9l2-2.6c0.6,0.5,1.2,1,1.9,1.3C30.2,33.9,31,34.1,31.9,34.1z"/>
		<path class="st93" d="M98.4,34.1c0.6,0,1.2-0.1,1.6-0.4c0.4-0.3,0.6-0.7,0.6-1.2c0-0.2,0-0.4-0.1-0.6c-0.1-0.2-0.2-0.4-0.4-0.6
			c-0.2-0.2-0.5-0.4-0.9-0.5c-0.4-0.2-0.9-0.4-1.5-0.6c-0.8-0.3-1.4-0.6-2-0.9c-0.6-0.3-1.1-0.7-1.5-1.1c-0.4-0.4-0.7-0.9-0.9-1.4
			c-0.2-0.5-0.3-1.2-0.3-1.9s0.1-1.4,0.4-2c0.3-0.6,0.6-1.1,1.1-1.6c0.5-0.4,1.1-0.8,1.7-1c0.7-0.2,1.4-0.4,2.3-0.4
			c0.9,0,1.9,0.2,2.8,0.5c0.9,0.3,1.8,0.8,2.5,1.6l-1.9,2.6c-0.6-0.4-1.2-0.8-1.7-1.1c-0.6-0.3-1.2-0.4-1.9-0.4
			c-0.6,0-1,0.1-1.4,0.4c-0.3,0.3-0.5,0.6-0.5,1.1c0,0.2,0,0.4,0.1,0.6c0.1,0.2,0.3,0.4,0.5,0.6c0.2,0.2,0.6,0.4,1,0.6
			c0.4,0.2,0.9,0.4,1.6,0.7c0.7,0.3,1.4,0.6,1.9,0.9c0.6,0.3,1,0.7,1.4,1.1c0.4,0.4,0.7,0.9,0.9,1.4c0.2,0.5,0.3,1.1,0.3,1.7
			c0,0.8-0.1,1.5-0.4,2.1c-0.3,0.6-0.7,1.2-1.2,1.6s-1.1,0.8-1.8,1c-0.7,0.2-1.4,0.3-2.2,0.3c-1.1,0-2.2-0.2-3.3-0.6
			c-1.1-0.4-2.1-1-3-1.9l2-2.6c0.6,0.5,1.2,1,1.9,1.3C96.7,33.9,97.5,34.1,98.4,34.1z"/>
		<g>
			<polygon class="st93" points="55.4,34.8 55.4,20.3 52,20.3 52,30.1 55.2,34.8 			"/>
		</g>
		<path class="st93" d="M50.2,30.5c-0.2-0.5-0.5-1-0.9-1.4c-0.4-0.4-0.8-0.8-1.4-1.1c-0.6-0.3-1.2-0.6-1.9-0.9
			c-0.7-0.2-1.2-0.5-1.6-0.7c-0.4-0.2-0.7-0.4-1-0.6c-0.2-0.2-0.4-0.4-0.5-0.6c-0.1-0.2-0.1-0.4-0.1-0.6c0-0.4,0.2-0.8,0.5-1.1
			c0.3-0.3,0.8-0.4,1.4-0.4c0.7,0,1.3,0.1,1.9,0.4c0.6,0.3,1.2,0.6,1.7,1.1l0.2-0.3L45.3,20c-0.2,0-0.3,0-0.5,0
			c-0.8,0-1.6,0.1-2.3,0.4c-0.7,0.2-1.3,0.6-1.7,1c-0.5,0.4-0.9,1-1.1,1.6c-0.3,0.6-0.4,1.3-0.4,2c0,0.7,0.1,1.4,0.3,1.9
			c0.2,0.5,0.5,1,0.9,1.4c0.4,0.4,0.9,0.8,1.5,1.1c0.6,0.3,1.3,0.6,2,0.9c0.6,0.2,1.1,0.4,1.5,0.6c0.4,0.2,0.7,0.4,0.9,0.5
			c0.2,0.2,0.3,0.4,0.4,0.6c0.1,0.2,0.1,0.4,0.1,0.6c0,0.5-0.2,0.9-0.6,1.2c-0.4,0.3-0.9,0.4-1.6,0.4c-0.9,0-1.7-0.2-2.4-0.6
			c-0.7-0.4-1.3-0.8-1.9-1.3l-2,2.6c0.9,0.9,1.9,1.5,3,1.9c1.1,0.4,2.2,0.6,3.3,0.6c0.8,0,1.5-0.1,2.2-0.3c0.7-0.2,1.3-0.6,1.8-1
			c0.5-0.4,0.9-1,1.2-1.6c0.3-0.6,0.4-1.3,0.4-2.1C50.5,31.5,50.4,31,50.2,30.5z"/>
	</g>
</g>
</svg>
