<?xml version="1.0" encoding="utf-8"?>
<svg version="1.1" xmlns="http://www.w3.org/2000/svg" xmlns:xlink="http://www.w3.org/1999/xlink" x="0px" y="0px"
	 viewBox="0 0 275.6 154.1" style="enable-background:new 0 0 275.6 154.1;" xml:space="preserve">
<g id="Layer_1">
	<g>
		<g>
			<path d="M90.5,142.9c-2-1.1-4-2.3-6.2-3.4c-0.4-0.2-1.1-0.4-1.7-0.5c-8.6-1-17.1-2.1-25.7-3.1c-0.8-0.1-2.1-0.1-2.8,0.1
				c-2.5,0.4-4.9,0.9-7.4,1.4l-8.7,1.6c-2.8,0.5-5.7,1.1-8.5,1.6c-0.8,0.1-1.4,0.4-1.7,0.7c-1.7,1.7-3.2,3.4-4.7,5.2
				c-0.2,0.3,0.1,0.7,0.7,0.9c5.3,1.9,10.8,3.7,16.3,5.5c0.6,0.2,1.7,0.4,2.6,0.4c7.8,0.3,15.7,0.5,23.5,0.8
				c1.8,0.1,2.8-0.1,3.9-0.4c3.7-1.3,7.5-2.5,11.4-3.8c2.4-0.8,4.2-1.6,5.1-2.6c1.1-1.2,2.7-2.3,4-3.4c0.2-0.2,0.5-0.3,0.5-0.5
				C91.1,143.1,90.7,143,90.5,142.9z"/>
			<path d="M15.2,48.5c-1,0.6-1.9,2-2.2,3.1c-2.2,7.6-4.3,15.3-6.2,22.9c-0.3,1.2,0.1,3.1,0.9,4.1c7,8.3,14.1,16.4,21.3,24.5
				c0.8,0.9,2.2,1.6,3.4,1.7c10.3,1.2,20.6,2.2,30.9,3.4c2.3,0.3,3.7-0.3,5.1-2c4.9-5.7,9.8-11.3,14.9-16.8c3.1-3.4,5.5-7,6.8-11.5
				c1.5-5.2,3.5-10.2,5.3-15.3c0.2-0.7,0.7-1.4,0.7-2.2c0-0.8-0.4-1.3-0.7-1.9c-2.7-5-5.3-10-8.1-15c-0.5-0.9-1.4-1.7-2.3-2.1
				c-11.2-4.6-22.5-9.2-33.8-13.7c-1.1-0.4-2.8-0.3-3.7,0.3c-3.2,2-12.1,7.7-15.3,9.7l2.2,2.9c2.8-1.8,10-6.3,12.9-8.1
				c-0.4,4.9-0.5,6.2-0.9,10.4c0,0.5,0,3-1,4.3c-0.8,1-8.7,11.4-14.7,17.4c-3.4-4.7-9.4-8.9-12.8-13.6c2.9-1.8,6.8-4.4,9.9-6.3
				c2.8,3.7,4.6,6.1,4.7,6.4l1.8-4.8L22.1,30.6c4.7-1.2,7.9-5.3,10-9.4c2.4-4.8,2.9-10.4,5-15.4c1.8-4.3,3.5-5.9-2.4-5.7
				C30.1,0.1,26,1.6,22.2,3.9C20.5,5,18.7,6.1,17,7C13.3,8.8,9.6,9.8,5.6,8.8C5.3,8.4,5,8.1,4.8,7.8C3.7,6.9,2.6,7,0,8.5
				C0.9,9.7,16.2,29.8,25.4,42C22,44.1,18.6,46.3,15.2,48.5z M65.3,104.2c-9.8-6.6-19.2-13-29.2-19.7c5.3-1.1,10-2,14.8-3
				c7.8-1.6,15.5-3,23.3-4.7c2.2-0.5,3.9-0.3,5.3,1.7c1.2,1.7,2.7,3.1,4.2,4.8C77.5,90.4,71.4,97.2,65.3,104.2z M85.9,48.8
				c2.2,4,4.1,7.5,5.9,11c0.2,0.4,0.3,1.1,0.2,1.5c-2.1,6-4.2,12-6.4,18.4c-1.8-1.9-3.4-3.4-4.7-5.2c-0.5-0.6-0.6-1.7-0.4-2.5
				C82.1,64.6,83.9,57.1,85.9,48.8z M51,31.7c8.6,3.5,17.1,7,25.6,10.4c0.8,0.3-0.1,0.5-0.1,0.5s-17.6,1.9-26.8,2.8
				C50.2,40.7,50.6,36.4,51,31.7z M32.1,70.2c0.2-2.2,2.9-4.6,3.7-5.5c5.2-6.1,6.8-8.3,12-14.3c0.6-0.6,1.5-1.2,2.3-1.3
				c10.7-1.2,30.2-3,31.5-3.2s0.9-0.1,1,0.2c-1.8,7.8-3.8,15.6-5.5,23.4c-0.5,2.4-1.4,3.6-4,4.1c-12.7,2.4-39.6,7.6-40.5,7.7
				C31.7,77.2,31.8,73.3,32.1,70.2z M37.7,90.1c6.4,4.6,13.1,8.9,19.6,13.3c0,0,0.9,0.5-0.2,0.5c-1.3,0-13-1.4-17.9-1.7
				c-6.5-0.4-9.3-3-12.7-7.3c-3.7-4.8-8-9.3-11.8-14.4c2.4,0.7,4.8,1.6,7.2,2.1C27.7,84,32.9,86.6,37.7,90.1z M28.2,80.4
				c-0.2,0-0.9-0.1-1.3-0.3c-4.9-1.5-9.6-2.9-14.5-4.3c-1.6-0.5-1.9-1.1-1.5-2.7c1.7-5.9,3.2-11.8,4.9-18
				C27.6,68.4,28,60.9,28.2,80.4z"/>
			<path d="M4.3,52.1C5,52,8.8,50.2,7,48.8c-0.4-0.3-4.7,0.6-4.7,0.7C0.3,51,3.2,52.2,4.3,52.1z"/>
			<path d="M89.4,35.4c0.3-1.1,0.7-3.1,1-4.7l0.5-2.4c0.1-0.7,0.2-1.3,0.1-1.8c-0.2-1.1-1-1.8-2.4-2.1l-0.5-0.1L88,24.4l-0.4,1.8
				c-0.1,0.6-0.2,1-0.3,1.5c-0.2,0.8-1.1,5.6-1.2,7.2c-0.1,0.7,0.8,1.6,1.3,2.3C88.1,36.6,89.2,36.1,89.4,35.4z"/>
			<path d="M97.1,43.5l2.5-0.3c0.7-0.1,1.3-0.2,1.8-0.4c1-0.6,1.4-1.6,1.2-2.9l-0.1-0.5l-0.1-0.1l-1.9,0.2c-0.6,0-1,0.1-1.5,0.2
				c-0.8,0.1-2.9,0.3-4.5,0.6c-0.7,0.2-1.2,1.3-1.8,1.9c0.8,0.5,1.6,1.4,2.3,1.4C96.1,43.6,95.4,43.8,97.1,43.5z"/>
			<path d="M3.5,42.5c0.6,0.5,2.8,2.3,4.2,3.3c0.6,0.4,1.8,0,2.7,0c-0.2-0.9,0-2.1-0.6-2.6C9,42.4,9,42.3,7.6,41.2l-1.9-1.6
				c-0.6-0.5-1.1-0.8-1.5-1c-1.1-0.3-2.1,0-3,1.1l-0.3,0.4l0,0.2l1.4,1.2C2.8,41.9,3.1,42.1,3.5,42.5z"/>
		</g>
		<g>
			<path d="M128.6,44.4h7.2l3.2,8.2l5-7.4l5,7.4l3.2-8.2h7.2L151,66.1l-7-10.5l-7,10.5L128.6,44.4z"/>
			<path d="M161,44.4h7.6v11.4c0,2.2,1.5,2.8,2.9,2.8c1.4,0,2.9-0.6,2.9-2.8V44.4h7.6v12c0,6.3-5.1,9-10.6,9c-5.4,0-10.6-2.8-10.6-9
				V44.4z"/>
			<path d="M185.8,44.4h7.6v2.5c1.3-2.3,3.3-3,5.8-3c5.2,0,8,3.3,8,8.9V65h-7.6V53.7c0-1.9-1.1-3.2-2.9-3.2s-3.2,1.3-3.2,3.3V65
				h-7.6V44.4z"/>
			<path d="M219.9,44.1c2.9,0,4.9,0.9,5.7,2.4v-10h7.4V65h-7.4v-2.2c-0.7,1.5-2.8,2.4-5.7,2.4c-5.9,0-10.2-4.7-10.2-10.5
				C209.7,48.9,214,44.1,219.9,44.1z M221.5,58.6c2.3,0,4.3-1.8,4.3-3.9c0-2.1-2-3.9-4.3-3.9c-2.4,0-4.3,1.8-4.3,3.9
				C217.2,56.8,219.1,58.6,221.5,58.6z"/>
			<path d="M235.8,54.6c0-6.5,4.8-10.7,11.2-10.7c6.5,0,10.8,4.7,10.8,10.6c0,0,0,1.2-0.1,2.3h-14.4c0.1,1.5,1.8,2.4,4.5,2.4
				c3.9,0,6-0.8,7.2-1.3v6c-1.9,1.1-4,1.6-7.6,1.6c-6.9,0-11.6-4.2-11.6-10.6V54.6z M250.4,52.2c0-1.3-1.5-2.5-3.3-2.5
				c-2,0-3.6,1.2-3.7,2.5H250.4z"/>
			<path d="M260.5,44.4h7.6v2.5c1.3-2.3,3.3-3,5.8-3c0.6,0,1.4,0.1,1.8,0.1v6.9c-0.6-0.1-1.3-0.2-2-0.2c-3.6,0-5.5,1.9-5.5,5.1V65
				h-7.6V44.4z"/>
			<path d="M135.1,76.1h7.4v2.2c0.7-1.5,2.8-2.4,5.7-2.4c5.9,0,10.2,4.8,10.2,10.5c0,5.8-4.3,10.5-10.2,10.5c-2.9,0-4.9-0.9-5.7-2.4
				v10h-7.4V76.1z M146.5,90.3c2.4,0,4.3-1.8,4.3-3.9c0-2.1-1.9-3.9-4.3-3.9c-2.3,0-4.3,1.8-4.3,3.9
				C142.3,88.6,144.2,90.3,146.5,90.3z"/>
			<path d="M160.3,86.3c0-6.5,4.8-10.7,11.2-10.7c6.5,0,10.8,4.7,10.8,10.6c0,0,0,1.2-0.1,2.3h-14.4c0.1,1.5,1.8,2.4,4.5,2.4
				c3.9,0,6-0.8,7.2-1.3v6c-1.9,1.1-4,1.6-7.6,1.6c-6.9,0-11.6-4.2-11.6-10.6V86.3z M174.8,83.9c0-1.3-1.5-2.5-3.3-2.5
				c-2,0-3.6,1.2-3.7,2.5H174.8z"/>
			<path d="M195.7,75.5c6.5,0,11.7,4.9,11.7,10.9c0,6-5.2,10.9-11.7,10.9c-6.5,0-11.7-4.9-11.7-10.9C184,80.4,189.2,75.5,195.7,75.5
				z M195.7,90.4c2.3,0,4.2-1.8,4.2-4c0-2.2-2-4-4.2-4c-2.3,0-4.2,1.8-4.2,4C191.4,88.6,193.4,90.4,195.7,90.4z"/>
			<path d="M210.2,76.1h7.4v2.2c0.7-1.5,2.8-2.4,5.7-2.4c5.9,0,10.2,4.8,10.2,10.5c0,5.8-4.3,10.5-10.2,10.5c-2.9,0-4.9-0.9-5.7-2.4
				v10h-7.4V76.1z M221.7,90.3c2.4,0,4.3-1.8,4.3-3.9c0-2.1-1.9-3.9-4.3-3.9c-2.3,0-4.3,1.8-4.3,3.9
				C217.4,88.6,219.4,90.3,221.7,90.3z"/>
			<path d="M236.3,68.2h7.6v28.5h-7.6V68.2z"/>
			<path d="M246.7,86.3c0-6.5,4.8-10.7,11.2-10.7c6.5,0,10.8,4.7,10.8,10.6c0,0,0,1.2-0.1,2.3h-14.4c0.1,1.5,1.8,2.4,4.5,2.4
				c3.9,0,6-0.8,7.2-1.3v6c-1.9,1.1-4,1.6-7.6,1.6c-6.9,0-11.6-4.2-11.6-10.6V86.3z M261.3,83.9c0-1.3-1.5-2.5-3.3-2.5
				c-2,0-3.6,1.2-3.7,2.5H261.3z"/>
		</g>
	</g>
</g>
</svg>
