<svg version="1.1" xmlns="http://www.w3.org/2000/svg"
	 viewBox="0 0 13.6 18.3">
<g>
	<path d="M13.5,8.8c-0.2-0.3-0.5-0.6-0.9-0.6H4v-7C4,1.2,4,1.1,4.1,1.1h5.4c0.1,0,0.1,0.1,0.1,0.1v4.1
		c0,0.1-0.1,0.1-0.1,0.1H6.2c-0.3,0-0.5,0.2-0.5,0.5s0.2,0.5,0.5,0.5h3.3c0.7,0,1.2-0.5,1.2-1.2V1.2c0-0.7-0.5-1.2-1.2-1.2H4.1
		C3.4,0,2.9,0.5,2.9,1.2v7H1c-0.4,0-0.7,0.2-0.9,0.6S0,9.5,0.2,9.8L6,17.9c0.2,0.3,0.5,0.4,0.8,0.4s0.6-0.2,0.8-0.4l5.8-8.1
		C13.6,9.5,13.6,9.1,13.5,8.8z M6.8,17.1L1.2,9.3h11.2L6.8,17.1z" fill="rgb(210,100,20)"/>
</g>
</svg>


